# xmcd
#
# Track frame offsets: 
#        150
#        17956
#        37662
#        54017
#        70510
#        84412
#        101817
#
# Disc length: 1561 seconds
#
# Revision: 1
# Processed by: cddbd v1.5.2PL0 Copyright (c) Steve Scherf et al.
# Submitted via: ExactAudioCopyFreeDBPlugin 1.0
#
DISCID=46061707
DTITLE=Charice - Charice
DYEAR=2010
DGENRE=R&B
TTITLE0=Charice Feat. Iyaz - Pyramid
TTITLE1=Reset
TTITLE2=In This Song
TTITLE3=Nobody's Singin' To Me
TTITLE4=I Love You
TTITLE5=Nothing
TTITLE6=The Truth Is
EXTD=
EXTT0=
EXTT1=
EXTT2=
EXTT3=
EXTT4=
EXTT5=
EXTT6=
PLAYORDER=
